<svg width="91" height="91" viewBox="0 0 91 91" fill="none" xmlns="http://www.w3.org/2000/svg">
<path d="M51.8984 42.0342C53.0241 42.4785 54.1201 42.9673 55.1865 43.5005C56.2529 44.0337 57.2897 44.6409 58.2969 45.3223C57.6452 46.0332 57.0527 46.7738 56.5195 47.5439C55.9863 48.3141 55.4976 49.1436 55.0532 50.0322C52.7723 48.5511 50.3433 47.4255 47.7661 46.6553C45.189 45.8851 42.5378 45.5 39.8125 45.5C37.2057 45.5 34.6878 45.8407 32.2588 46.522C29.8298 47.2033 27.5636 48.1512 25.4604 49.3657C23.3573 50.5802 21.4466 52.0614 19.7285 53.8091C18.0104 55.5568 16.5293 57.4823 15.2852 59.5854C14.041 61.6886 13.0783 63.9548 12.397 66.3838C11.7157 68.8128 11.375 71.3307 11.375 73.9375H5.6875C5.6875 70.3828 6.20589 66.9614 7.24268 63.6733C8.27946 60.3853 9.77539 57.349 11.7305 54.5645C13.6855 51.7799 15.9961 49.3065 18.6621 47.144C21.3281 44.9816 24.3496 43.2783 27.7266 42.0342C24.3792 39.8421 21.7725 37.0872 19.9062 33.7695C18.04 30.4518 17.0921 26.7786 17.0625 22.75C17.0625 19.61 17.6549 16.6626 18.8398 13.9077C20.0247 11.1528 21.6392 8.73861 23.6831 6.66504C25.7271 4.59147 28.1413 2.96224 30.9258 1.77734C33.7103 0.592448 36.6725 0 39.8125 0C42.9525 0 45.8999 0.592448 48.6548 1.77734C51.4097 2.96224 53.8239 4.57666 55.8975 6.62061C57.971 8.66455 59.6003 11.0788 60.7852 13.8633C61.9701 16.6478 62.5625 19.61 62.5625 22.75C62.5625 24.7051 62.3255 26.6157 61.8516 28.4819C61.3776 30.3481 60.6667 32.1107 59.7188 33.7695C58.7708 35.4284 57.66 36.9539 56.3862 38.3462C55.1125 39.7384 53.6165 40.9678 51.8984 42.0342ZM22.75 22.75C22.75 25.1198 23.1943 27.3267 24.083 29.3706C24.9717 31.4146 26.1862 33.2215 27.7266 34.7915C29.2669 36.3615 31.0739 37.5908 33.1475 38.4795C35.221 39.3682 37.4427 39.8125 39.8125 39.8125C42.1527 39.8125 44.3595 39.3682 46.4331 38.4795C48.5067 37.5908 50.3136 36.3763 51.854 34.8359C53.3944 33.2956 54.6237 31.4886 55.542 29.415C56.4603 27.3415 56.9046 25.1198 56.875 22.75C56.875 20.4098 56.4307 18.203 55.542 16.1294C54.6533 14.0558 53.4388 12.2489 51.8984 10.7085C50.3581 9.16813 48.5363 7.9388 46.4331 7.02051C44.3299 6.10221 42.123 5.65788 39.8125 5.6875C37.4427 5.6875 35.2358 6.13184 33.1919 7.02051C31.1479 7.90918 29.341 9.1237 27.771 10.6641C26.201 12.2044 24.9717 14.0262 24.083 16.1294C23.1943 18.2326 22.75 20.4395 22.75 22.75ZM88.1562 59.7188C88.1562 61.2591 87.9193 62.755 87.4453 64.2065C86.9714 65.658 86.2604 67.0059 85.3125 68.25V91L73.9375 85.3125L62.5625 91V68.25C61.6442 67.0059 60.9481 65.658 60.4741 64.2065C60.0002 62.755 59.7484 61.2591 59.7188 59.7188C59.7188 57.7637 60.089 55.9271 60.8296 54.209C61.5701 52.4909 62.5773 50.995 63.8511 49.7212C65.1248 48.4474 66.6356 47.4255 68.3833 46.6553C70.131 45.8851 71.9824 45.5 73.9375 45.5C75.8926 45.5 77.7292 45.8703 79.4473 46.6108C81.1654 47.3514 82.6613 48.3734 83.9351 49.6768C85.2088 50.9801 86.2308 52.4909 87.001 54.209C87.7712 55.9271 88.1562 57.7637 88.1562 59.7188ZM73.9375 51.1875C72.7526 51.1875 71.6418 51.4097 70.605 51.854C69.5682 52.2983 68.6647 52.9056 67.8945 53.6758C67.1243 54.446 66.5171 55.3494 66.0728 56.3862C65.6284 57.423 65.4062 58.5339 65.4062 59.7188C65.4062 60.9036 65.6284 62.0145 66.0728 63.0513C66.5171 64.0881 67.1243 64.9915 67.8945 65.7617C68.6647 66.5319 69.5682 67.1392 70.605 67.5835C71.6418 68.0278 72.7526 68.25 73.9375 68.25C75.1224 68.25 76.2332 68.0278 77.27 67.5835C78.3068 67.1392 79.2103 66.5319 79.9805 65.7617C80.7506 64.9915 81.3579 64.0881 81.8022 63.0513C82.2466 62.0145 82.4688 60.9036 82.4688 59.7188C82.4688 58.5339 82.2466 57.423 81.8022 56.3862C81.3579 55.3494 80.7506 54.446 79.9805 53.6758C79.2103 52.9056 78.3068 52.2983 77.27 51.854C76.2332 51.4097 75.1224 51.1875 73.9375 51.1875ZM79.625 81.8022V72.7378C77.8477 73.5376 75.9518 73.9375 73.9375 73.9375C71.9232 73.9375 70.0273 73.5376 68.25 72.7378V81.8022C69.1979 81.3283 70.1458 80.8691 71.0938 80.4248C72.0417 79.9805 72.9896 79.4917 73.9375 78.9585C74.8854 79.4621 75.8333 79.936 76.7812 80.3804C77.7292 80.8247 78.6771 81.2987 79.625 81.8022Z" fill="#FECC09"/>
</svg>
