<svg width="91" height="91" viewBox="0 0 91 91" fill="none" xmlns="http://www.w3.org/2000/svg">
<path d="M81.7272 24.156C81.8997 24.5716 81.9451 25.029 81.8576 25.4704C81.7702 25.9118 81.5538 26.3173 81.2358 26.6357L72.1358 35.7357C71.9241 35.9468 71.6729 36.1142 71.3966 36.2282C71.1202 36.3422 70.8241 36.4005 70.5251 36.4H57.8169L51.6608 42.5562C52.3547 44.009 52.5127 45.6603 52.1069 47.2183C51.701 48.7764 50.7574 50.1407 49.4428 51.0703C48.1283 51.9999 46.5274 52.4348 44.9232 52.2982C43.319 52.1616 41.8147 51.4623 40.6763 50.3238C39.5378 49.1854 38.8385 47.6811 38.7019 46.0769C38.5653 44.4727 39.0002 42.8718 39.9298 41.5573C40.8594 40.2427 42.2238 39.2991 43.7818 38.8932C45.3398 38.4874 46.9912 38.6454 48.4439 39.3393L54.6001 33.1832V20.475C54.5996 20.1761 54.658 19.8799 54.7719 19.6036C54.8859 19.3272 55.0533 19.076 55.2644 18.8643L64.3644 9.76432C64.6826 9.44533 65.0883 9.228 65.5301 9.13988C65.972 9.05176 66.43 9.09682 66.8463 9.26935C67.2625 9.44187 67.6181 9.73409 67.868 10.109C68.1179 10.4838 68.2509 10.9245 68.2501 11.375V22.75H79.6251C80.0753 22.7501 80.5153 22.8837 80.8895 23.134C81.2637 23.3843 81.5552 23.7399 81.7272 24.156ZM74.1332 27.3H65.9751C65.3717 27.3 64.7931 27.0603 64.3664 26.6337C63.9398 26.207 63.7001 25.6284 63.7001 25.025V16.8669L59.1501 21.4169V31.85H69.5832L74.1332 27.3ZM80.1119 34.1933C81.2722 37.7514 81.9001 41.5552 81.9001 45.5C81.8984 53.1892 79.4618 60.6804 74.9397 66.8993C70.4176 73.1182 64.0423 77.7453 56.728 80.1171C49.4138 82.489 41.5363 82.4836 34.2252 80.1019C26.9142 77.7202 20.5451 73.0844 16.0315 66.8594C11.5178 60.6344 9.09137 53.1399 9.10012 45.4507C9.10888 37.7614 11.5524 30.2725 16.0802 24.0578C20.608 17.8431 26.9876 13.2218 34.3041 10.8567C41.6205 8.49166 49.498 8.50425 56.8068 10.8927L53.1304 14.5691C46.3764 12.9038 39.2628 13.4955 32.8767 16.2538C26.4906 19.012 21.1831 23.7852 17.7652 29.844C14.3473 35.9028 13.007 42.9139 13.9491 49.8062C14.8911 56.6984 18.0637 63.0928 22.9821 68.0121C27.9005 72.9315 34.2942 76.1053 41.1863 77.0487C48.0783 77.9921 55.0898 76.6532 61.1492 73.2365C67.2086 69.8198 71.9829 64.5132 74.7424 58.1276C77.5019 51.742 78.095 44.6286 76.431 37.8742L80.1119 34.1933ZM67.7951 40.95C68.0984 42.4242 68.2501 43.9409 68.2501 45.5C68.2491 50.1946 66.7959 54.7739 64.0896 58.61C61.3833 62.446 57.5566 65.3509 53.1342 66.9262C48.7119 68.5016 43.9104 68.6702 39.3884 67.4091C34.8664 66.1479 30.8453 63.5186 27.8766 59.8819C24.9078 56.2452 23.1368 51.7791 22.8065 47.0962C22.4761 42.4133 23.6026 37.7428 26.0314 33.7253C28.4603 29.7079 32.0724 26.5402 36.3726 24.6567C40.6728 22.7732 45.4504 22.2661 50.0501 23.205V27.8733C46.1847 26.8761 42.0987 27.1775 38.4215 28.7309C34.7442 30.2843 31.6796 33.0036 29.6998 36.4699C27.72 39.9363 26.9348 43.9575 27.4651 47.914C27.9953 51.8705 29.8117 55.543 32.6344 58.3657C35.4571 61.1884 39.1296 63.0048 43.0861 63.535C47.0427 64.0653 51.0638 63.2801 54.5302 61.3003C57.9965 59.3205 60.7158 56.2559 62.2692 52.5786C63.8226 48.9014 64.124 44.8154 63.1268 40.95H67.7951Z" fill="#FECC09"/>
</svg>
